<svg width="32" height="32" viewBox="0 0 32 32" class="icon icon-cart-bubble" fill="none" xmlns="http://www.w3.org/2000/svg">
<path d="M6.66684 18.6665H24.1811C25.5316 18.6665 26.2068 18.6665 26.7443 18.4147C27.2178 18.1929 27.6157 17.8368 27.8884 17.3907C28.198 16.8843 28.2726 16.2132 28.4217 14.871L29.2017 7.85096C29.2473 7.44101 29.27 7.23604 29.2041 7.07738C29.1462 6.93804 29.0428 6.82246 28.9107 6.74954C28.7603 6.6665 28.554 6.6665 28.1416 6.6665H6.00018M2.66666 2.6665H4.33124C4.68407 2.6665 4.86049 2.6665 4.99851 2.7336C5.12001 2.79267 5.2207 2.88727 5.28724 3.00485C5.36282 3.13842 5.37382 3.31449 5.39583 3.66663L6.60415 22.9997C6.62616 23.3518 6.63716 23.5279 6.71274 23.6615C6.77928 23.7791 6.87997 23.8737 7.00147 23.9327C7.13949 23.9998 7.31591 23.9998 7.66874 23.9998H25.3333M9.99999 28.6665H10.0133M22 28.6665H22.0133M10.6667 28.6665C10.6667 29.0347 10.3682 29.3332 9.99999 29.3332C9.6318 29.3332 9.33332 29.0347 9.33332 28.6665C9.33332 28.2983 9.6318 27.9998 9.99999 27.9998C10.3682 27.9998 10.6667 28.2983 10.6667 28.6665ZM22.6667 28.6665C22.6667 29.0347 22.3682 29.3332 22 29.3332C21.6318 29.3332 21.3333 29.0347 21.3333 28.6665C21.3333 28.2983 21.6318 27.9998 22 27.9998C22.3682 27.9998 22.6667 28.2983 22.6667 28.6665Z" stroke="white" stroke-width="2" stroke-linecap="round" stroke-linejoin="round"/>
</svg>
